#!OML:ASF F:\VICON\USERDATA\INSTALL\rory3\rory3.ASF
:FULLY-SPECIFIED
:DEGREES
3135
root 0.432714 15.531 -6.44132 -198.023 143.062 -179.447
lowerback 23.0316 -2.44869 -2.53256
upperback 14.8999 -3.09785 -2.96856
thorax 3.5543 -1.38384 -1.1617
lowerneck -0.366884 -16.7387 -18.1743
upperneck -6.00534 -22.6422 27.3192
head 3.81453 -11.3934 9.60446
rclavicle 8.74653e-015 3.97569e-015
rhumerus -43.7725 52.1913 -104.849
rradius 43.738
rwrist 30.0984
rhand -54.7522 30.0466
rfingers 7.12502
rthumb -27.1431 1.97841
lclavicle 8.74653e-015 3.97569e-015
lhumerus -52.7004 -39.5013 110.558
lradius 38.3529
lwrist -27.4168
lhand -39.8636 5.28899
lfingers 7.12502
lthumb -12.8363 34.8743
rfemur -34.27 -1.69843 10.6222
rtibia 70.2807
rfoot -16.6098 -20.4038
rtoes 0.794193
lfemur -32.1805 12.4684 -10.9162
ltibia 70.2351
lfoot -14.3026 -2.56881
ltoes 2.57496
3136
root 0.433217 15.5322 -6.44129 -198.047 143.064 -179.462
lowerback 23.0726 -2.45031 -2.48565
upperback 14.9081 -3.09158 -2.97882
thorax 3.54037 -1.3761 -1.199
lowerneck -0.388847 -16.7507 -18.1337
upperneck -6.01603 -22.6542 27.3296
head 3.81453 -11.3989 9.59802
rclavicle -6.75868e-015 3.18055e-015
rhumerus -43.7485 52.2011 -104.857
rradius 43.7421
rwrist 30.0471
rhand -54.6871 30.1475
rfingers 7.12502
rthumb -27.0808 2.06961
lclavicle -6.75868e-015 3.18055e-015
lhumerus -52.6949 -39.5129 110.503
lradius 38.4414
lwrist -27.3454
lhand -40.7142 4.67283
lfingers 7.12502
lthumb -13.6562 34.2048
rfemur -34.2329 -1.69227 10.6342
rtibia 70.2712
rfoot -16.6393 -20.3823
rtoes 0.841127
lfemur -32.1535 12.4692 -10.8982
ltibia 70.2463
lfoot -14.2911 -2.59402
ltoes 2.7734
3137
root 0.434165 15.5327 -6.44179 -197.998 143.074 -179.397
lowerback 23.0687 -2.42569 -2.49105
upperback 14.9157 -3.05944 -3.00195
thorax 3.55029 -1.35861 -1.22739
lowerneck -0.430504 -16.7853 -18.0824
upperneck -6.00225 -22.6975 27.3036
head 3.82454 -11.417 9.57001
rclavicle -3.69739e-014 1.59028e-014
rhumerus -43.7271 52.2041 -104.86
rradius 43.7527
rwrist 29.9838
rhand -54.698 30.2537
rfingers 7.12502
rthumb -27.0912 2.17747
lclavicle -3.69739e-014 1.59028e-014
lhumerus -52.6899 -39.5817 110.482
lradius 38.4805
lwrist -27.2944
lhand -39.6835 5.12122
lfingers 7.12502
lthumb -12.6626 34.7174
rfemur -34.2522 -1.66796 10.574
rtibia 70.2682
rfoot -16.6623 -20.3688
rtoes 0.889626
lfemur -32.1445 12.4663 -10.9523
ltibia 70.2556
lfoot -14.3033 -2.61017
ltoes 3.02541
3138
root 0.433838 15.53 -6.44127 -197.999 143.096 -179.456
lowerback 23.0298 -2.41884 -2.44046
upperback 14.9204 -3.04043 -2.98194
thorax 3.5723 -1.34669 -1.23934
lowerneck -0.504447 -16.8165 -18.0696
upperneck -5.94152 -22.7398 27.2627
head 3.85548 -11.4298 9.53847
rclavicle 3.22031e-014 1.35174e-014
rhumerus -43.7276 52.2477 -104.86
rradius 43.759
rwrist 29.9417
rhand -54.7313 30.4369
rfingers 7.12502
rthumb -27.1231 2.36561
lclavicle 3.22031e-014 1.35174e-014
lhumerus -52.6748 -39.6225 110.485
lradius 38.4498
lwrist -27.2805
lhand -40.5172 4.55159
lfingers 7.12502
lthumb -13.4664 34.0963
rfemur -34.3011 -1.66454 10.6436
rtibia 70.2722
rfoot -16.6606 -20.4142
rtoes 0.87516
lfemur -32.2033 12.4908 -10.9031
ltibia 70.2627
lfoot -14.2781 -2.59282
ltoes 2.79643
3139
root 0.433822 15.5295 -6.44127 -198.02 143.087 -179.51
lowerback 23.0401 -2.43825 -2.38111
upperback 14.9074 -3.05641 -2.98141
thorax 3.54855 -1.3506 -1.26807
lowerneck -0.457366 -16.7912 -18.0818
upperneck -5.96423 -22.7087 27.2955
head 3.84103 -11.419 9.56163
rclavicle 6.40087e-014 -2.54444e-014
rhumerus -43.8299 52.3489 -104.967
rradius 43.7786
rwrist 29.863
rhand -54.7243 30.3246
rfingers 7.12502
rthumb -27.1164 2.25231
lclavicle 6.40087e-014 -2.54444e-014
lhumerus -52.708 -39.6089 110.479
lradius 38.4431
lwrist -27.2914
lhand -39.7551 4.76388
lfingers 7.12502
lthumb -12.7316 34.3557
rfemur -34.2975 -1.69603 10.6949
rtibia 70.2717
rfoot -16.637 -20.4319
rtoes 0.784793
lfemur -32.2325 12.4952 -10.8672
ltibia 70.256
lfoot -14.2548 -2.57923
ltoes 2.64384
3140
root 0.433709 15.5322 -6.44194 -198.016 143.07 -179.474
lowerback 23.0662 -2.43922 -2.39229
upperback 14.9137 -3.05934 -2.99625
thorax 3.54316 -1.35164 -1.27652
lowerneck -0.417195 -16.7641 -18.0879
upperneck -6.01913 -22.6681 27.3315
head 3.81621 -11.4045 9.58706
rclavicle -1.0138e-013 -7.15625e-015
rhumerus -43.8747 52.4054 -105.005
rradius 43.8049
rwrist 29.8448
rhand -54.7326 30.2162
rfingers 7.12502
rthumb -27.1244 2.1451
lclavicle -1.0138e-013 -7.15625e-015
lhumerus -52.7059 -39.6395 110.477
lradius 38.4163
lwrist -27.3536
lhand -40.6232 4.50906
lfingers 7.12502
lthumb -13.5684 34.0469
rfemur -34.267 -1.69837 10.65
rtibia 70.2639
rfoot -16.6123 -20.428
rtoes 0.890773
lfemur -32.1973 12.4807 -10.8999
ltibia 70.2429
lfoot -14.2777 -2.61198
ltoes 2.74072
3141
root 0.432482 15.5334 -6.44192 -198.014 143.06 -179.489
lowerback 23.0554 -2.43797 -2.39021
upperback 14.9137 -3.05698 -2.98756
thorax 3.5487 -1.3508 -1.26917
lowerneck -0.440116 -16.7653 -18.0845
upperneck -5.9902 -22.67 27.3031
head 3.82386 -11.4025 9.57451
rclavicle 6.32135e-014 2.14687e-014
rhumerus -43.8579 52.3663 -104.969
rradius 43.8102
rwrist 29.897
rhand -54.6304 30.5873
rfingers 7.12502
rthumb -27.0266 2.501
lclavicle 6.32135e-014 2.14687e-014
lhumerus -52.7024 -39.6352 110.461
lradius 38.4298
lwrist -27.4249
lhand -39.7172 4.85257
lfingers 7.12502
lthumb -12.6951 34.4467
rfemur -34.2786 -1.68306 10.6595
rtibia 70.2589
rfoot -16.6243 -20.4638
rtoes 1.15166
lfemur -32.2079 12.475 -10.8866
ltibia 70.2387
lfoot -14.2776 -2.62759
ltoes 2.67378
3142
root 0.431752 15.5328 -6.44143 -198 143.037 -179.491
lowerback 23.048 -2.43683 -2.4062
upperback 14.8981 -3.0593 -2.98093
thorax 3.53572 -1.35366 -1.25232
lowerneck -0.374297 -16.7527 -18.0952
upperneck -6.00393 -22.6593 27.3119
head 3.80928 -11.4025 9.58749
rclavicle -3.26007e-014 -3.73715e-014
rhumerus -43.8752 52.2815 -104.956
rradius 43.8229
rwrist 29.9962
rhand -54.4132 31.149
rfingers 7.12502
rthumb -26.8188 3.0307
lclavicle -3.26007e-014 -3.73715e-014
lhumerus -52.7477 -39.6116 110.465
lradius 38.4958
lwrist -27.3528
lhand -40.598 4.10425
lfingers 7.12502
lthumb -13.5442 33.6438
rfemur -34.2924 -1.69692 10.6594
rtibia 70.2607
rfoot -16.6538 -20.4782
rtoes 1.13012
lfemur -32.2282 12.4618 -10.8918
ltibia 70.2368
lfoot -14.2617 -2.60298
ltoes 2.85643
3143
root 0.431745 15.5318 -6.44165 -197.991 143.039 -179.47
lowerback 23.0599 -2.42598 -2.42502
upperback 14.8987 -3.04868 -2.97793
thorax 3.53212 -1.34962 -1.24021
lowerneck -0.294685 -16.7381 -18.1011
upperneck -6.07849 -22.638 27.3488
head 3.7765 -11.401 9.6135
rclavicle 9.10434e-014 -2.54444e-014
rhumerus -43.8704 52.229 -104.923
rradius 43.8496
rwrist 30.0759
rhand -54.3319 31.5607
rfingers 7.12502
rthumb -26.741 3.43042
lclavicle 9.10434e-014 -2.54444e-014
lhumerus -52.7464 -39.6207 110.468
lradius 38.5071
lwrist -27.3124
lhand -39.5613 4.71909
lfingers 7.12502
lthumb -12.5449 34.3225
rfemur -34.3016 -1.70022 10.6398
rtibia 70.2623
rfoot -16.6144 -20.4685
rtoes 0.900515
lfemur -32.2226 12.47 -10.9112
ltibia 70.2348
lfoot -14.2636 -2.58347
ltoes 3.03279
3144
root 0.431903 15.5316 -6.44192 -198 143.05 -179.483
lowerback 23.0694 -2.41972 -2.39369
upperback 14.9033 -3.03475 -2.97321
thorax 3.53117 -1.34033 -1.25516
lowerneck -0.268301 -16.7395 -18.1014
upperneck -6.10203 -22.6399 27.364
head 3.76821 -11.405 9.62096
rclavicle -1.98785e-014 4.77083e-014
rhumerus -43.9054 52.2872 -104.948
rradius 43.8859
rwrist 29.9943
rhand -54.4025 31.3589
rfingers 7.12502
rthumb -26.8085 3.23905
lclavicle -1.98785e-014 4.77083e-014
lhumerus -52.7657 -39.6378 110.468
lradius 38.5462
lwrist -27.3687
lhand -40.1999 4.59487
lfingers 7.12502
lthumb -13.1605 34.1595
rfemur -34.305 -1.68868 10.6522
rtibia 70.26
rfoot -16.5911 -20.4788
rtoes 0.788717
lfemur -32.2266 12.4885 -10.9053
ltibia 70.2254
lfoot -14.2547 -2.56126
ltoes 2.67914
3145
root 0.432327 15.5321 -6.44145 -198.001 143.048 -179.48
lowerback 23.0595 -2.41346 -2.37932
upperback 14.9139 -3.0227 -2.9804
thorax 3.54691 -1.33261 -1.27397
lowerneck -0.25799 -16.7509 -18.0844
upperneck -6.07307 -22.6624 27.3633
head 3.77751 -11.4161 9.61417
rclavicle -5.4467e-014 1.59028e-014
rhumerus -43.9546 52.375 -105.013
rradius 43.9158
rwrist 29.9388
rhand -54.3599 30.7793
rfingers 7.12502
rthumb -26.7678 2.65319
lclavicle -5.4467e-014 1.59028e-014
lhumerus -52.8218 -39.6875 110.489
lradius 38.5933
lwrist -27.3409
lhand -39.6295 4.77237
lfingers 7.12502
lthumb -12.6106 34.3717
rfemur -34.2863 -1.67891 10.6543
rtibia 70.258
rfoot -16.6329 -20.4987
rtoes 0.791876
lfemur -32.2214 12.4814 -10.9108
ltibia 70.2132
lfoot -14.2627 -2.55432
ltoes 2.47639
3146
root 0.43336 15.5332 -6.441 -197.974 143.03 -179.411
lowerback 23.0321 -2.41277 -2.44279
upperback 14.9396 -3.03002 -3.00026
thorax 3.59243 -1.33972 -1.26031
lowerneck -0.27521 -16.7468 -18.0666
upperneck -6.03469 -22.6601 27.3481
head 3.78638 -11.4126 9.60495
rclavicle 2.78299e-014 -2.70347e-014
rhumerus -43.9066 52.4265 -104.99
rradius 43.921
rwrist 29.9906
rhand -54.1204 30.8309
rfingers 7.12502
rthumb -26.5386 2.66987
lclavicle 2.78299e-014 -2.70347e-014
lhumerus -52.804 -39.6871 110.465
lradius 38.6148
lwrist -27.1999
lhand -40.4582 4.22498
lfingers 7.12502
lthumb -13.4094 33.7734
rfemur -34.261 -1.6828 10.5856
rtibia 70.2562
rfoot -16.6559 -20.4871
rtoes 0.788794
lfemur -32.1814 12.4561 -10.9726
ltibia 70.1956
lfoot -14.2901 -2.56797
ltoes 2.62532
